<?xml version="1.0" standalone="no"?><!DOCTYPE svg PUBLIC "-//W3C//DTD SVG 1.1//EN" "http://www.w3.org/Graphics/SVG/1.1/DTD/svg11.dtd"><svg t="1611649847468" class="icon" viewBox="0 0 1280 1024" version="1.1" xmlns="http://www.w3.org/2000/svg" p-id="931" xmlns:xlink="http://www.w3.org/1999/xlink" width="250" height="200"><defs><style type="text/css"></style></defs><path d="M1228.8 153.6v716.8c0 56.32-46.08 102.4-102.4 102.4H153.6c-56.32 0-102.4-46.08-102.4-102.4V153.6c0-56.32 46.08-102.4 102.4-102.4h972.8c56.32 0 102.4 46.08 102.4 102.4z" fill="#EA5406" p-id="932"></path><path d="M1126.4 1011.2H153.6C76.8 1011.2 12.8 947.2 12.8 870.4V153.6C12.8 76.8 76.8 12.8 153.6 12.8h972.8c76.8 0 140.8 64 140.8 140.8v716.8c0 76.8-64 140.8-140.8 140.8zM153.6 89.6C117.76 89.6 89.6 117.76 89.6 153.6v716.8c0 35.84 28.16 64 64 64h972.8c35.84 0 64-28.16 64-64V153.6c0-35.84-28.16-64-64-64H153.6z" fill="#333333" p-id="933"></path><path d="M729.6 409.6h281.6c20.48 0 38.4 17.92 38.4 38.4s-17.92 38.4-38.4 38.4h-281.6c-20.48 0-38.4-17.92-38.4-38.4s17.92-38.4 38.4-38.4zM294.4 691.2h742.4c20.48 0 38.4 17.92 38.4 38.4s-17.92 38.4-38.4 38.4h-742.4c-20.48 0-38.4-17.92-38.4-38.4s17.92-38.4 38.4-38.4zM729.6 256h153.6c20.48 0 38.4 17.92 38.4 38.4s-17.92 38.4-38.4 38.4h-153.6c-20.48 0-38.4-17.92-38.4-38.4s17.92-38.4 38.4-38.4z" fill="#FFFFFF" p-id="934"></path><path d="M384 384m-128 0a128 128 0 1 0 256 0 128 128 0 1 0-256 0Z" fill="#FFFFFF" p-id="935"></path><path d="M384 537.6c-84.48 0-153.6-69.12-153.6-153.6s69.12-153.6 153.6-153.6 153.6 69.12 153.6 153.6-69.12 153.6-153.6 153.6z m0-256c-56.32 0-102.4 46.08-102.4 102.4s46.08 102.4 102.4 102.4 102.4-46.08 102.4-102.4-46.08-102.4-102.4-102.4z" fill="#333333" p-id="936"></path></svg>